<svg width="410" height="410" viewBox="0 0 410 410" fill="none" xmlns="http://www.w3.org/2000/svg">
<path d="M207.364 405.742C318.9 405.742 409.318 315.328 409.318 203.797C409.318 92.2666 318.9 1.85303 207.364 1.85303C95.8274 1.85303 5.40942 92.2666 5.40942 203.797C5.40942 315.328 95.8274 405.742 207.364 405.742Z" fill="white"/>
<path d="M366.969 254.434C345.606 323.377 281.318 373.437 205.36 373.437C111.946 373.437 36.1885 297.708 36.1885 204.298C36.1885 110.889 111.921 35.16 205.36 35.16C279.24 35.16 342.075 82.5157 365.115 148.553H401.679C377.262 62.7821 298.348 0 204.759 0C91.6858 0 0 91.6563 0 204.749C0 317.817 91.6607 409.498 204.759 409.498C300.702 409.498 381.244 343.511 403.433 254.434H366.969Z" fill="#232323"/>
<path d="M201.729 65.8123C124.994 65.8123 62.7852 128.018 62.7852 204.749C62.7852 281.48 124.994 343.686 201.729 343.686C278.463 343.686 340.673 281.48 340.673 204.749C340.673 128.018 278.463 65.8123 201.729 65.8123ZM201.729 319.144C138.543 319.144 87.3282 267.932 87.3282 204.749C87.3282 141.566 138.543 90.3541 201.729 90.3541C264.915 90.3541 316.129 141.566 316.129 204.749C316.129 267.932 264.915 319.144 201.729 319.144Z" fill="#F15A22"/>
<path d="M144.453 285.312C118.157 267.657 100.877 237.68 100.877 203.647C100.877 149.355 144.879 105.355 199.174 105.355C214 105.355 228.05 108.635 240.647 114.52C227.023 126.866 216.079 140.74 208.115 155.791C198.173 174.598 194.967 190.775 191.862 206.427C188.481 223.556 185.275 239.734 173.179 257.164C165.666 267.982 155.999 277.448 144.453 285.312Z" fill="#9B4E22"/>
<path d="M302.581 205.851C302.581 260.144 258.579 304.144 204.283 304.144C186.152 304.144 169.172 299.235 154.596 290.696C165.841 282.732 175.308 273.241 182.796 262.473C195.543 244.091 198.849 227.388 202.355 209.683C205.385 194.432 208.491 178.63 218.057 160.549C226.021 145.498 237.091 131.65 250.99 119.379C281.744 135.957 302.581 168.462 302.581 205.851Z" fill="#9B4E22"/>
<path d="M364.715 231.22C363.638 231.57 362.536 231.871 361.434 232.171C356.6 233.223 351.767 234.25 346.908 235.302C352.543 232.998 361.509 228.49 369.874 219.825C371.526 218.122 375.483 213.84 379.265 207.479C386.878 194.707 388.807 181.935 389.233 173.496C366.994 179.206 351.366 189.799 346.157 198.464C342.851 203.948 341.599 208.205 341.599 208.205C339.921 213.94 340.672 216.82 338.819 223.506C337.968 226.562 337.091 228.615 335.664 231.846C333.485 236.804 330.029 243.691 324.519 251.579C325.646 241.587 326.773 231.57 327.9 221.578C327.424 216.419 327.8 211.386 329.002 206.603C331.156 197.988 336.014 190.124 343.402 183.263C349.212 177.854 356.6 173.045 365.391 168.938C380.592 161.826 395.193 159.122 396.796 158.846L401.629 157.995L401.98 162.903C402.18 165.833 402.631 176.351 400.052 188.346C398.499 195.559 396.095 202.095 392.939 207.755C388.982 214.842 383.798 220.626 377.537 224.934C373.655 227.638 369.348 229.742 364.715 231.22Z" fill="#F15B24"/>
</svg>
